<?xml version="1.0" encoding="utf-8" standalone="no"?>
<!DOCTYPE svg PUBLIC "-//W3C//DTD SVG 1.1//EN"
  "http://www.w3.org/Graphics/SVG/1.1/DTD/svg11.dtd">
<svg xmlns:xlink="http://www.w3.org/1999/xlink" width="679.897033pt" height="589.827402pt" viewBox="0 0 679.897033 589.827402" xmlns="http://www.w3.org/2000/svg" version="1.1">
 <metadata>
  <rdf:RDF xmlns:dc="http://purl.org/dc/elements/1.1/" xmlns:cc="http://creativecommons.org/ns#" xmlns:rdf="http://www.w3.org/1999/02/22-rdf-syntax-ns#">
   <cc:Work>
    <dc:type rdf:resource="http://purl.org/dc/dcmitype/StillImage"/>
    <dc:date>2023-12-03T19:10:15.410653</dc:date>
    <dc:format>image/svg+xml</dc:format>
    <dc:creator>
     <cc:Agent>
      <dc:title>Matplotlib v3.7.0, https://matplotlib.org/</dc:title>
     </cc:Agent>
    </dc:creator>
   </cc:Work>
  </rdf:RDF>
 </metadata>
 <defs>
  <style type="text/css">*{stroke-linejoin: round; stroke-linecap: butt}</style>
 </defs>
 <g id="figure_1">
  <g id="patch_1">
   <path d="M 0 589.827402 
L 679.897033 589.827402 
L 679.897033 0 
L 0 0 
L 0 589.827402 
z
" style="fill: none"/>
  </g>
  <g id="axes_1">
   <g id="patch_2">
    <path d="M 564.143283 294.913701 
C 564.143283 265.792444 558.40703 236.954356 547.262808 210.049823 
C 536.118585 183.14529 519.78312 158.697539 499.191282 138.105701 
C 478.599444 117.513863 454.151693 101.178398 427.247161 90.034176 
C 400.342628 78.889953 371.504539 73.153701 342.383283 73.153701 
C 313.262026 73.153701 284.423937 78.889953 257.519405 90.034176 
C 230.614872 101.178398 206.167121 117.513863 185.575283 138.105701 
C 164.983445 158.697539 148.64798 183.14529 137.503757 210.049823 
C 126.359535 236.954356 120.623283 265.792444 120.623283 294.913701 
C 120.623283 324.034957 126.359535 352.873046 137.503757 379.777579 
C 148.64798 406.682112 164.983445 431.129863 185.575283 451.721701 
C 206.167121 472.313539 230.614872 488.649004 257.519405 499.793226 
C 284.423937 510.937448 313.262026 516.673701 342.383283 516.673701 
C 371.504539 516.673701 400.342628 510.937448 427.247161 499.793226 
C 454.151693 488.649004 478.599444 472.313539 499.191282 451.721701 
C 519.78312 431.129863 536.118585 406.682112 547.262808 379.777579 
C 558.40703 352.873046 564.143283 324.034957 564.143283 294.913701 
M 342.383283 294.913701 
C 342.383283 294.913701 342.383283 294.913701 342.383283 294.913701 
C 342.383283 294.913701 342.383283 294.913701 342.383283 294.913701 
C 342.383283 294.913701 342.383283 294.913701 342.383283 294.913701 
C 342.383283 294.913701 342.383283 294.913701 342.383283 294.913701 
C 342.383283 294.913701 342.383283 294.913701 342.383283 294.913701 
C 342.383283 294.913701 342.383283 294.913701 342.383283 294.913701 
C 342.383283 294.913701 342.383283 294.913701 342.383283 294.913701 
C 342.383283 294.913701 342.383283 294.913701 342.383283 294.913701 
C 342.383283 294.913701 342.383283 294.913701 342.383283 294.913701 
C 342.383283 294.913701 342.383283 294.913701 342.383283 294.913701 
C 342.383283 294.913701 342.383283 294.913701 342.383283 294.913701 
C 342.383283 294.913701 342.383283 294.913701 342.383283 294.913701 
C 342.383283 294.913701 342.383283 294.913701 342.383283 294.913701 
C 342.383283 294.913701 342.383283 294.913701 342.383283 294.913701 
C 342.383283 294.913701 342.383283 294.913701 342.383283 294.913701 
C 342.383283 294.913701 342.383283 294.913701 342.383283 294.913701 
L 342.383283 294.913701 
z
" style="fill: none"/>
   </g>
   <g id="matplotlib.axis_1">
    <g id="xtick_1">
     <g id="line2d_1">
      <path d="M 342.383283 294.913701 
L 564.143283 294.913701 
" clip-path="url(#p34a1ac8534)" style="fill: none; stroke: #284463; stroke-linecap: round"/>
     </g>
     <g id="text_1">
      <!-- TotalWorkingYears -->
      <g style="fill: #284463" transform="translate(581.589533 297.69292) scale(0.11 -0.11)">
       <defs>
        <path id="ArialMT-54" d="M 1659 0 
L 1659 4041 
L 150 4041 
L 150 4581 
L 3781 4581 
L 3781 4041 
L 2266 4041 
L 2266 0 
L 1659 0 
z
" transform="scale(0.015625)"/>
        <path id="ArialMT-6f" d="M 213 1659 
Q 213 2581 725 3025 
Q 1153 3394 1769 3394 
Q 2453 3394 2887 2945 
Q 3322 2497 3322 1706 
Q 3322 1066 3130 698 
Q 2938 331 2570 128 
Q 2203 -75 1769 -75 
Q 1072 -75 642 372 
Q 213 819 213 1659 
z
M 791 1659 
Q 791 1022 1069 705 
Q 1347 388 1769 388 
Q 2188 388 2466 706 
Q 2744 1025 2744 1678 
Q 2744 2294 2464 2611 
Q 2184 2928 1769 2928 
Q 1347 2928 1069 2612 
Q 791 2297 791 1659 
z
" transform="scale(0.015625)"/>
        <path id="ArialMT-74" d="M 1650 503 
L 1731 6 
Q 1494 -44 1306 -44 
Q 1000 -44 831 53 
Q 663 150 594 308 
Q 525 466 525 972 
L 525 2881 
L 113 2881 
L 113 3319 
L 525 3319 
L 525 4141 
L 1084 4478 
L 1084 3319 
L 1650 3319 
L 1650 2881 
L 1084 2881 
L 1084 941 
Q 1084 700 1114 631 
Q 1144 563 1211 522 
Q 1278 481 1403 481 
Q 1497 481 1650 503 
z
" transform="scale(0.015625)"/>
        <path id="ArialMT-61" d="M 2588 409 
Q 2275 144 1986 34 
Q 1697 -75 1366 -75 
Q 819 -75 525 192 
Q 231 459 231 875 
Q 231 1119 342 1320 
Q 453 1522 633 1644 
Q 813 1766 1038 1828 
Q 1203 1872 1538 1913 
Q 2219 1994 2541 2106 
Q 2544 2222 2544 2253 
Q 2544 2597 2384 2738 
Q 2169 2928 1744 2928 
Q 1347 2928 1158 2789 
Q 969 2650 878 2297 
L 328 2372 
Q 403 2725 575 2942 
Q 747 3159 1072 3276 
Q 1397 3394 1825 3394 
Q 2250 3394 2515 3294 
Q 2781 3194 2906 3042 
Q 3031 2891 3081 2659 
Q 3109 2516 3109 2141 
L 3109 1391 
Q 3109 606 3145 398 
Q 3181 191 3288 0 
L 2700 0 
Q 2613 175 2588 409 
z
M 2541 1666 
Q 2234 1541 1622 1453 
Q 1275 1403 1131 1340 
Q 988 1278 909 1158 
Q 831 1038 831 891 
Q 831 666 1001 516 
Q 1172 366 1500 366 
Q 1825 366 2078 508 
Q 2331 650 2450 897 
Q 2541 1088 2541 1459 
L 2541 1666 
z
" transform="scale(0.015625)"/>
        <path id="ArialMT-6c" d="M 409 0 
L 409 4581 
L 972 4581 
L 972 0 
L 409 0 
z
" transform="scale(0.015625)"/>
        <path id="ArialMT-57" d="M 1294 0 
L 78 4581 
L 700 4581 
L 1397 1578 
Q 1509 1106 1591 641 
Q 1766 1375 1797 1488 
L 2669 4581 
L 3400 4581 
L 4056 2263 
Q 4303 1400 4413 641 
Q 4500 1075 4641 1638 
L 5359 4581 
L 5969 4581 
L 4713 0 
L 4128 0 
L 3163 3491 
Q 3041 3928 3019 4028 
Q 2947 3713 2884 3491 
L 1913 0 
L 1294 0 
z
" transform="scale(0.015625)"/>
        <path id="ArialMT-72" d="M 416 0 
L 416 3319 
L 922 3319 
L 922 2816 
Q 1116 3169 1280 3281 
Q 1444 3394 1641 3394 
Q 1925 3394 2219 3213 
L 2025 2691 
Q 1819 2813 1613 2813 
Q 1428 2813 1281 2702 
Q 1134 2591 1072 2394 
Q 978 2094 978 1738 
L 978 0 
L 416 0 
z
" transform="scale(0.015625)"/>
        <path id="ArialMT-6b" d="M 425 0 
L 425 4581 
L 988 4581 
L 988 1969 
L 2319 3319 
L 3047 3319 
L 1778 2088 
L 3175 0 
L 2481 0 
L 1384 1697 
L 988 1316 
L 988 0 
L 425 0 
z
" transform="scale(0.015625)"/>
        <path id="ArialMT-69" d="M 425 3934 
L 425 4581 
L 988 4581 
L 988 3934 
L 425 3934 
z
M 425 0 
L 425 3319 
L 988 3319 
L 988 0 
L 425 0 
z
" transform="scale(0.015625)"/>
        <path id="ArialMT-6e" d="M 422 0 
L 422 3319 
L 928 3319 
L 928 2847 
Q 1294 3394 1984 3394 
Q 2284 3394 2536 3286 
Q 2788 3178 2913 3003 
Q 3038 2828 3088 2588 
Q 3119 2431 3119 2041 
L 3119 0 
L 2556 0 
L 2556 2019 
Q 2556 2363 2490 2533 
Q 2425 2703 2258 2804 
Q 2091 2906 1866 2906 
Q 1506 2906 1245 2678 
Q 984 2450 984 1813 
L 984 0 
L 422 0 
z
" transform="scale(0.015625)"/>
        <path id="ArialMT-67" d="M 319 -275 
L 866 -356 
Q 900 -609 1056 -725 
Q 1266 -881 1628 -881 
Q 2019 -881 2231 -725 
Q 2444 -569 2519 -288 
Q 2563 -116 2559 434 
Q 2191 0 1641 0 
Q 956 0 581 494 
Q 206 988 206 1678 
Q 206 2153 378 2554 
Q 550 2956 876 3175 
Q 1203 3394 1644 3394 
Q 2231 3394 2613 2919 
L 2613 3319 
L 3131 3319 
L 3131 450 
Q 3131 -325 2973 -648 
Q 2816 -972 2473 -1159 
Q 2131 -1347 1631 -1347 
Q 1038 -1347 672 -1080 
Q 306 -813 319 -275 
z
M 784 1719 
Q 784 1066 1043 766 
Q 1303 466 1694 466 
Q 2081 466 2343 764 
Q 2606 1063 2606 1700 
Q 2606 2309 2336 2618 
Q 2066 2928 1684 2928 
Q 1309 2928 1046 2623 
Q 784 2319 784 1719 
z
" transform="scale(0.015625)"/>
        <path id="ArialMT-59" d="M 1784 0 
L 1784 1941 
L 19 4581 
L 756 4581 
L 1659 3200 
Q 1909 2813 2125 2425 
Q 2331 2784 2625 3234 
L 3513 4581 
L 4219 4581 
L 2391 1941 
L 2391 0 
L 1784 0 
z
" transform="scale(0.015625)"/>
        <path id="ArialMT-65" d="M 2694 1069 
L 3275 997 
Q 3138 488 2766 206 
Q 2394 -75 1816 -75 
Q 1088 -75 661 373 
Q 234 822 234 1631 
Q 234 2469 665 2931 
Q 1097 3394 1784 3394 
Q 2450 3394 2872 2941 
Q 3294 2488 3294 1666 
Q 3294 1616 3291 1516 
L 816 1516 
Q 847 969 1125 678 
Q 1403 388 1819 388 
Q 2128 388 2347 550 
Q 2566 713 2694 1069 
z
M 847 1978 
L 2700 1978 
Q 2663 2397 2488 2606 
Q 2219 2931 1791 2931 
Q 1403 2931 1139 2672 
Q 875 2413 847 1978 
z
" transform="scale(0.015625)"/>
        <path id="ArialMT-73" d="M 197 991 
L 753 1078 
Q 800 744 1014 566 
Q 1228 388 1613 388 
Q 2000 388 2187 545 
Q 2375 703 2375 916 
Q 2375 1106 2209 1216 
Q 2094 1291 1634 1406 
Q 1016 1563 777 1677 
Q 538 1791 414 1992 
Q 291 2194 291 2438 
Q 291 2659 392 2848 
Q 494 3038 669 3163 
Q 800 3259 1026 3326 
Q 1253 3394 1513 3394 
Q 1903 3394 2198 3281 
Q 2494 3169 2634 2976 
Q 2775 2784 2828 2463 
L 2278 2388 
Q 2241 2644 2061 2787 
Q 1881 2931 1553 2931 
Q 1166 2931 1000 2803 
Q 834 2675 834 2503 
Q 834 2394 903 2306 
Q 972 2216 1119 2156 
Q 1203 2125 1616 2013 
Q 2213 1853 2448 1751 
Q 2684 1650 2818 1456 
Q 2953 1263 2953 975 
Q 2953 694 2789 445 
Q 2625 197 2315 61 
Q 2006 -75 1616 -75 
Q 969 -75 630 194 
Q 291 463 197 991 
z
" transform="scale(0.015625)"/>
       </defs>
       <use xlink:href="#ArialMT-54"/>
       <use xlink:href="#ArialMT-6f" x="49.958984"/>
       <use xlink:href="#ArialMT-74" x="105.574219"/>
       <use xlink:href="#ArialMT-61" x="133.357422"/>
       <use xlink:href="#ArialMT-6c" x="188.972656"/>
       <use xlink:href="#ArialMT-57" x="211.189453"/>
       <use xlink:href="#ArialMT-6f" x="303.824219"/>
       <use xlink:href="#ArialMT-72" x="359.439453"/>
       <use xlink:href="#ArialMT-6b" x="392.740234"/>
       <use xlink:href="#ArialMT-69" x="442.740234"/>
       <use xlink:href="#ArialMT-6e" x="464.957031"/>
       <use xlink:href="#ArialMT-67" x="520.572266"/>
       <use xlink:href="#ArialMT-59" x="576.1875"/>
       <use xlink:href="#ArialMT-65" x="633.761719"/>
       <use xlink:href="#ArialMT-61" x="689.376953"/>
       <use xlink:href="#ArialMT-72" x="744.992188"/>
       <use xlink:href="#ArialMT-73" x="778.292969"/>
      </g>
     </g>
    </g>
    <g id="xtick_2">
     <g id="line2d_2">
      <path d="M 342.383283 294.913701 
L 538.742011 191.85669 
" clip-path="url(#p34a1ac8534)" style="fill: none; stroke: #284463; stroke-linecap: round"/>
     </g>
     <g id="text_2">
      <!-- YearsInCurrentRole -->
      <g style="fill: #284463" transform="translate(546.424803 165.422802) scale(0.11 -0.11)">
       <defs>
        <path id="ArialMT-49" d="M 597 0 
L 597 4581 
L 1203 4581 
L 1203 0 
L 597 0 
z
" transform="scale(0.015625)"/>
        <path id="ArialMT-43" d="M 3763 1606 
L 4369 1453 
Q 4178 706 3683 314 
Q 3188 -78 2472 -78 
Q 1731 -78 1267 223 
Q 803 525 561 1097 
Q 319 1669 319 2325 
Q 319 3041 592 3573 
Q 866 4106 1370 4382 
Q 1875 4659 2481 4659 
Q 3169 4659 3637 4309 
Q 4106 3959 4291 3325 
L 3694 3184 
Q 3534 3684 3231 3912 
Q 2928 4141 2469 4141 
Q 1941 4141 1586 3887 
Q 1231 3634 1087 3207 
Q 944 2781 944 2328 
Q 944 1744 1114 1308 
Q 1284 872 1643 656 
Q 2003 441 2422 441 
Q 2931 441 3284 734 
Q 3638 1028 3763 1606 
z
" transform="scale(0.015625)"/>
        <path id="ArialMT-75" d="M 2597 0 
L 2597 488 
Q 2209 -75 1544 -75 
Q 1250 -75 995 37 
Q 741 150 617 320 
Q 494 491 444 738 
Q 409 903 409 1263 
L 409 3319 
L 972 3319 
L 972 1478 
Q 972 1038 1006 884 
Q 1059 663 1231 536 
Q 1403 409 1656 409 
Q 1909 409 2131 539 
Q 2353 669 2445 892 
Q 2538 1116 2538 1541 
L 2538 3319 
L 3100 3319 
L 3100 0 
L 2597 0 
z
" transform="scale(0.015625)"/>
        <path id="ArialMT-52" d="M 503 0 
L 503 4581 
L 2534 4581 
Q 3147 4581 3465 4457 
Q 3784 4334 3975 4021 
Q 4166 3709 4166 3331 
Q 4166 2844 3850 2509 
Q 3534 2175 2875 2084 
Q 3116 1969 3241 1856 
Q 3506 1613 3744 1247 
L 4541 0 
L 3778 0 
L 3172 953 
Q 2906 1366 2734 1584 
Q 2563 1803 2427 1890 
Q 2291 1978 2150 2013 
Q 2047 2034 1813 2034 
L 1109 2034 
L 1109 0 
L 503 0 
z
M 1109 2559 
L 2413 2559 
Q 2828 2559 3062 2645 
Q 3297 2731 3419 2920 
Q 3541 3109 3541 3331 
Q 3541 3656 3305 3865 
Q 3069 4075 2559 4075 
L 1109 4075 
L 1109 2559 
z
" transform="scale(0.015625)"/>
       </defs>
       <use xlink:href="#ArialMT-59"/>
       <use xlink:href="#ArialMT-65" x="57.574219"/>
       <use xlink:href="#ArialMT-61" x="113.189453"/>
       <use xlink:href="#ArialMT-72" x="168.804688"/>
       <use xlink:href="#ArialMT-73" x="202.105469"/>
       <use xlink:href="#ArialMT-49" x="252.105469"/>
       <use xlink:href="#ArialMT-6e" x="279.888672"/>
       <use xlink:href="#ArialMT-43" x="335.503906"/>
       <use xlink:href="#ArialMT-75" x="407.720703"/>
       <use xlink:href="#ArialMT-72" x="463.335938"/>
       <use xlink:href="#ArialMT-72" x="496.636719"/>
       <use xlink:href="#ArialMT-65" x="529.9375"/>
       <use xlink:href="#ArialMT-6e" x="585.552734"/>
       <use xlink:href="#ArialMT-74" x="641.167969"/>
       <use xlink:href="#ArialMT-52" x="668.951172"/>
       <use xlink:href="#ArialMT-6f" x="741.167969"/>
       <use xlink:href="#ArialMT-6c" x="796.783203"/>
       <use xlink:href="#ArialMT-65" x="819"/>
      </g>
     </g>
    </g>
    <g id="xtick_3">
     <g id="line2d_3">
      <path d="M 342.383283 294.913701 
L 468.357321 112.408799 
" clip-path="url(#p34a1ac8534)" style="fill: none; stroke: #284463; stroke-linecap: round"/>
     </g>
     <g id="text_3">
      <!-- JobInvolvement -->
      <g style="fill: #284463" transform="translate(465.626494 63.404487) scale(0.11 -0.11)">
       <defs>
        <path id="ArialMT-4a" d="M 184 1300 
L 731 1375 
Q 753 850 928 656 
Q 1103 463 1413 463 
Q 1641 463 1806 567 
Q 1972 672 2034 851 
Q 2097 1031 2097 1425 
L 2097 4581 
L 2703 4581 
L 2703 1459 
Q 2703 884 2564 568 
Q 2425 253 2123 87 
Q 1822 -78 1416 -78 
Q 813 -78 492 269 
Q 172 616 184 1300 
z
" transform="scale(0.015625)"/>
        <path id="ArialMT-62" d="M 941 0 
L 419 0 
L 419 4581 
L 981 4581 
L 981 2947 
Q 1338 3394 1891 3394 
Q 2197 3394 2470 3270 
Q 2744 3147 2920 2923 
Q 3097 2700 3197 2384 
Q 3297 2069 3297 1709 
Q 3297 856 2875 390 
Q 2453 -75 1863 -75 
Q 1275 -75 941 416 
L 941 0 
z
M 934 1684 
Q 934 1088 1097 822 
Q 1363 388 1816 388 
Q 2184 388 2453 708 
Q 2722 1028 2722 1663 
Q 2722 2313 2464 2622 
Q 2206 2931 1841 2931 
Q 1472 2931 1203 2611 
Q 934 2291 934 1684 
z
" transform="scale(0.015625)"/>
        <path id="ArialMT-76" d="M 1344 0 
L 81 3319 
L 675 3319 
L 1388 1331 
Q 1503 1009 1600 663 
Q 1675 925 1809 1294 
L 2547 3319 
L 3125 3319 
L 1869 0 
L 1344 0 
z
" transform="scale(0.015625)"/>
        <path id="ArialMT-6d" d="M 422 0 
L 422 3319 
L 925 3319 
L 925 2853 
Q 1081 3097 1340 3245 
Q 1600 3394 1931 3394 
Q 2300 3394 2536 3241 
Q 2772 3088 2869 2813 
Q 3263 3394 3894 3394 
Q 4388 3394 4653 3120 
Q 4919 2847 4919 2278 
L 4919 0 
L 4359 0 
L 4359 2091 
Q 4359 2428 4304 2576 
Q 4250 2725 4106 2815 
Q 3963 2906 3769 2906 
Q 3419 2906 3187 2673 
Q 2956 2441 2956 1928 
L 2956 0 
L 2394 0 
L 2394 2156 
Q 2394 2531 2256 2718 
Q 2119 2906 1806 2906 
Q 1569 2906 1367 2781 
Q 1166 2656 1075 2415 
Q 984 2175 984 1722 
L 984 0 
L 422 0 
z
" transform="scale(0.015625)"/>
       </defs>
       <use xlink:href="#ArialMT-4a"/>
       <use xlink:href="#ArialMT-6f" x="50"/>
       <use xlink:href="#ArialMT-62" x="105.615234"/>
       <use xlink:href="#ArialMT-49" x="161.230469"/>
       <use xlink:href="#ArialMT-6e" x="189.013672"/>
       <use xlink:href="#ArialMT-76" x="244.628906"/>
       <use xlink:href="#ArialMT-6f" x="294.628906"/>
       <use xlink:href="#ArialMT-6c" x="350.244141"/>
       <use xlink:href="#ArialMT-76" x="372.460938"/>
       <use xlink:href="#ArialMT-65" x="422.460938"/>
       <use xlink:href="#ArialMT-6d" x="478.076172"/>
       <use xlink:href="#ArialMT-65" x="561.376953"/>
       <use xlink:href="#ArialMT-6e" x="616.992188"/>
       <use xlink:href="#ArialMT-74" x="672.607422"/>
      </g>
     </g>
    </g>
    <g id="xtick_4">
     <g id="line2d_4">
      <path d="M 342.383283 294.913701 
L 369.113497 74.770581 
" clip-path="url(#p34a1ac8534)" style="fill: none; stroke: #284463; stroke-linecap: round"/>
     </g>
     <g id="text_4">
      <!-- EnvironmentSatisfaction -->
      <g style="fill: #284463" transform="translate(317.402698 15.073594) scale(0.11 -0.11)">
       <defs>
        <path id="ArialMT-45" d="M 506 0 
L 506 4581 
L 3819 4581 
L 3819 4041 
L 1113 4041 
L 1113 2638 
L 3647 2638 
L 3647 2100 
L 1113 2100 
L 1113 541 
L 3925 541 
L 3925 0 
L 506 0 
z
" transform="scale(0.015625)"/>
        <path id="ArialMT-53" d="M 288 1472 
L 859 1522 
Q 900 1178 1048 958 
Q 1197 738 1509 602 
Q 1822 466 2213 466 
Q 2559 466 2825 569 
Q 3091 672 3220 851 
Q 3350 1031 3350 1244 
Q 3350 1459 3225 1620 
Q 3100 1781 2813 1891 
Q 2628 1963 1997 2114 
Q 1366 2266 1113 2400 
Q 784 2572 623 2826 
Q 463 3081 463 3397 
Q 463 3744 659 4045 
Q 856 4347 1234 4503 
Q 1613 4659 2075 4659 
Q 2584 4659 2973 4495 
Q 3363 4331 3572 4012 
Q 3781 3694 3797 3291 
L 3216 3247 
Q 3169 3681 2898 3903 
Q 2628 4125 2100 4125 
Q 1550 4125 1298 3923 
Q 1047 3722 1047 3438 
Q 1047 3191 1225 3031 
Q 1400 2872 2139 2705 
Q 2878 2538 3153 2413 
Q 3553 2228 3743 1945 
Q 3934 1663 3934 1294 
Q 3934 928 3725 604 
Q 3516 281 3123 101 
Q 2731 -78 2241 -78 
Q 1619 -78 1198 103 
Q 778 284 539 648 
Q 300 1013 288 1472 
z
" transform="scale(0.015625)"/>
        <path id="ArialMT-66" d="M 556 0 
L 556 2881 
L 59 2881 
L 59 3319 
L 556 3319 
L 556 3672 
Q 556 4006 616 4169 
Q 697 4388 901 4523 
Q 1106 4659 1475 4659 
Q 1713 4659 2000 4603 
L 1916 4113 
Q 1741 4144 1584 4144 
Q 1328 4144 1222 4034 
Q 1116 3925 1116 3625 
L 1116 3319 
L 1763 3319 
L 1763 2881 
L 1116 2881 
L 1116 0 
L 556 0 
z
" transform="scale(0.015625)"/>
        <path id="ArialMT-63" d="M 2588 1216 
L 3141 1144 
Q 3050 572 2676 248 
Q 2303 -75 1759 -75 
Q 1078 -75 664 370 
Q 250 816 250 1647 
Q 250 2184 428 2587 
Q 606 2991 970 3192 
Q 1334 3394 1763 3394 
Q 2303 3394 2647 3120 
Q 2991 2847 3088 2344 
L 2541 2259 
Q 2463 2594 2264 2762 
Q 2066 2931 1784 2931 
Q 1359 2931 1093 2626 
Q 828 2322 828 1663 
Q 828 994 1084 691 
Q 1341 388 1753 388 
Q 2084 388 2306 591 
Q 2528 794 2588 1216 
z
" transform="scale(0.015625)"/>
       </defs>
       <use xlink:href="#ArialMT-45"/>
       <use xlink:href="#ArialMT-6e" x="66.699219"/>
       <use xlink:href="#ArialMT-76" x="122.314453"/>
       <use xlink:href="#ArialMT-69" x="172.314453"/>
       <use xlink:href="#ArialMT-72" x="194.53125"/>
       <use xlink:href="#ArialMT-6f" x="227.832031"/>
       <use xlink:href="#ArialMT-6e" x="283.447266"/>
       <use xlink:href="#ArialMT-6d" x="339.0625"/>
       <use xlink:href="#ArialMT-65" x="422.363281"/>
       <use xlink:href="#ArialMT-6e" x="477.978516"/>
       <use xlink:href="#ArialMT-74" x="533.59375"/>
       <use xlink:href="#ArialMT-53" x="561.376953"/>
       <use xlink:href="#ArialMT-61" x="628.076172"/>
       <use xlink:href="#ArialMT-74" x="683.691406"/>
       <use xlink:href="#ArialMT-69" x="711.474609"/>
       <use xlink:href="#ArialMT-73" x="733.691406"/>
       <use xlink:href="#ArialMT-66" x="783.691406"/>
       <use xlink:href="#ArialMT-61" x="811.474609"/>
       <use xlink:href="#ArialMT-63" x="867.089844"/>
       <use xlink:href="#ArialMT-74" x="917.089844"/>
       <use xlink:href="#ArialMT-69" x="944.873047"/>
       <use xlink:href="#ArialMT-6f" x="967.089844"/>
       <use xlink:href="#ArialMT-6e" x="1022.705078"/>
      </g>
     </g>
    </g>
    <g id="xtick_5">
     <g id="line2d_5">
      <path d="M 342.383283 294.913701 
L 263.746103 87.564499 
" clip-path="url(#p34a1ac8534)" style="fill: none; stroke: #284463; stroke-linecap: round"/>
     </g>
     <g id="text_5">
      <!-- JobSatisfaction -->
      <g style="fill: #284463" transform="translate(204.108261 31.502147) scale(0.11 -0.11)">
       <use xlink:href="#ArialMT-4a"/>
       <use xlink:href="#ArialMT-6f" x="50"/>
       <use xlink:href="#ArialMT-62" x="105.615234"/>
       <use xlink:href="#ArialMT-53" x="161.230469"/>
       <use xlink:href="#ArialMT-61" x="227.929688"/>
       <use xlink:href="#ArialMT-74" x="283.544922"/>
       <use xlink:href="#ArialMT-69" x="311.328125"/>
       <use xlink:href="#ArialMT-73" x="333.544922"/>
       <use xlink:href="#ArialMT-66" x="383.544922"/>
       <use xlink:href="#ArialMT-61" x="411.328125"/>
       <use xlink:href="#ArialMT-63" x="466.943359"/>
       <use xlink:href="#ArialMT-74" x="516.943359"/>
       <use xlink:href="#ArialMT-69" x="544.726562"/>
       <use xlink:href="#ArialMT-6f" x="566.943359"/>
       <use xlink:href="#ArialMT-6e" x="622.558594"/>
      </g>
     </g>
    </g>
    <g id="xtick_6">
     <g id="line2d_6">
      <path d="M 342.383283 294.913701 
L 176.393539 147.85962 
" clip-path="url(#p34a1ac8534)" style="fill: none; stroke: #284463; stroke-linecap: round"/>
     </g>
     <g id="text_6">
      <!-- Age -->
      <g style="fill: #284463" transform="translate(119.451659 108.862111) scale(0.11 -0.11)">
       <defs>
        <path id="ArialMT-41" d="M -9 0 
L 1750 4581 
L 2403 4581 
L 4278 0 
L 3588 0 
L 3053 1388 
L 1138 1388 
L 634 0 
L -9 0 
z
M 1313 1881 
L 2866 1881 
L 2388 3150 
Q 2169 3728 2063 4100 
Q 1975 3659 1816 3225 
L 1313 1881 
z
" transform="scale(0.015625)"/>
       </defs>
       <use xlink:href="#ArialMT-41"/>
       <use xlink:href="#ArialMT-67" x="66.699219"/>
       <use xlink:href="#ArialMT-65" x="122.314453"/>
      </g>
     </g>
    </g>
    <g id="xtick_7">
     <g id="line2d_7">
      <path d="M 342.383283 294.913701 
L 127.067225 241.843059 
" clip-path="url(#p34a1ac8534)" style="fill: none; stroke: #284463; stroke-linecap: round"/>
     </g>
     <g id="text_7">
      <!-- RelationshipSatisfaction -->
      <g style="fill: #284463" transform="translate(7.2 229.676875) scale(0.11 -0.11)">
       <defs>
        <path id="ArialMT-68" d="M 422 0 
L 422 4581 
L 984 4581 
L 984 2938 
Q 1378 3394 1978 3394 
Q 2347 3394 2619 3248 
Q 2891 3103 3008 2847 
Q 3125 2591 3125 2103 
L 3125 0 
L 2563 0 
L 2563 2103 
Q 2563 2525 2380 2717 
Q 2197 2909 1863 2909 
Q 1613 2909 1392 2779 
Q 1172 2650 1078 2428 
Q 984 2206 984 1816 
L 984 0 
L 422 0 
z
" transform="scale(0.015625)"/>
        <path id="ArialMT-70" d="M 422 -1272 
L 422 3319 
L 934 3319 
L 934 2888 
Q 1116 3141 1344 3267 
Q 1572 3394 1897 3394 
Q 2322 3394 2647 3175 
Q 2972 2956 3137 2557 
Q 3303 2159 3303 1684 
Q 3303 1175 3120 767 
Q 2938 359 2589 142 
Q 2241 -75 1856 -75 
Q 1575 -75 1351 44 
Q 1128 163 984 344 
L 984 -1272 
L 422 -1272 
z
M 931 1641 
Q 931 1000 1190 694 
Q 1450 388 1819 388 
Q 2194 388 2461 705 
Q 2728 1022 2728 1688 
Q 2728 2322 2467 2637 
Q 2206 2953 1844 2953 
Q 1484 2953 1207 2617 
Q 931 2281 931 1641 
z
" transform="scale(0.015625)"/>
       </defs>
       <use xlink:href="#ArialMT-52"/>
       <use xlink:href="#ArialMT-65" x="72.216797"/>
       <use xlink:href="#ArialMT-6c" x="127.832031"/>
       <use xlink:href="#ArialMT-61" x="150.048828"/>
       <use xlink:href="#ArialMT-74" x="205.664062"/>
       <use xlink:href="#ArialMT-69" x="233.447266"/>
       <use xlink:href="#ArialMT-6f" x="255.664062"/>
       <use xlink:href="#ArialMT-6e" x="311.279297"/>
       <use xlink:href="#ArialMT-73" x="366.894531"/>
       <use xlink:href="#ArialMT-68" x="416.894531"/>
       <use xlink:href="#ArialMT-69" x="472.509766"/>
       <use xlink:href="#ArialMT-70" x="494.726562"/>
       <use xlink:href="#ArialMT-53" x="550.341797"/>
       <use xlink:href="#ArialMT-61" x="617.041016"/>
       <use xlink:href="#ArialMT-74" x="672.65625"/>
       <use xlink:href="#ArialMT-69" x="700.439453"/>
       <use xlink:href="#ArialMT-73" x="722.65625"/>
       <use xlink:href="#ArialMT-66" x="772.65625"/>
       <use xlink:href="#ArialMT-61" x="800.439453"/>
       <use xlink:href="#ArialMT-63" x="856.054688"/>
       <use xlink:href="#ArialMT-74" x="906.054688"/>
       <use xlink:href="#ArialMT-69" x="933.837891"/>
       <use xlink:href="#ArialMT-6f" x="956.054688"/>
       <use xlink:href="#ArialMT-6e" x="1011.669922"/>
      </g>
     </g>
    </g>
    <g id="xtick_8">
     <g id="line2d_8">
      <path d="M 342.383283 294.913701 
L 127.067225 347.984343 
" clip-path="url(#p34a1ac8534)" style="fill: none; stroke: #284463; stroke-linecap: round"/>
     </g>
     <g id="text_8">
      <!-- DistanceFromHome -->
      <g style="fill: #284463" transform="translate(16.999453 365.904901) scale(0.11 -0.11)">
       <defs>
        <path id="ArialMT-44" d="M 494 0 
L 494 4581 
L 2072 4581 
Q 2606 4581 2888 4516 
Q 3281 4425 3559 4188 
Q 3922 3881 4101 3404 
Q 4281 2928 4281 2316 
Q 4281 1794 4159 1391 
Q 4038 988 3847 723 
Q 3656 459 3429 307 
Q 3203 156 2883 78 
Q 2563 0 2147 0 
L 494 0 
z
M 1100 541 
L 2078 541 
Q 2531 541 2789 625 
Q 3047 709 3200 863 
Q 3416 1078 3536 1442 
Q 3656 1806 3656 2325 
Q 3656 3044 3420 3430 
Q 3184 3816 2847 3947 
Q 2603 4041 2063 4041 
L 1100 4041 
L 1100 541 
z
" transform="scale(0.015625)"/>
        <path id="ArialMT-46" d="M 525 0 
L 525 4581 
L 3616 4581 
L 3616 4041 
L 1131 4041 
L 1131 2622 
L 3281 2622 
L 3281 2081 
L 1131 2081 
L 1131 0 
L 525 0 
z
" transform="scale(0.015625)"/>
        <path id="ArialMT-48" d="M 513 0 
L 513 4581 
L 1119 4581 
L 1119 2700 
L 3500 2700 
L 3500 4581 
L 4106 4581 
L 4106 0 
L 3500 0 
L 3500 2159 
L 1119 2159 
L 1119 0 
L 513 0 
z
" transform="scale(0.015625)"/>
       </defs>
       <use xlink:href="#ArialMT-44"/>
       <use xlink:href="#ArialMT-69" x="72.216797"/>
       <use xlink:href="#ArialMT-73" x="94.433594"/>
       <use xlink:href="#ArialMT-74" x="144.433594"/>
       <use xlink:href="#ArialMT-61" x="172.216797"/>
       <use xlink:href="#ArialMT-6e" x="227.832031"/>
       <use xlink:href="#ArialMT-63" x="283.447266"/>
       <use xlink:href="#ArialMT-65" x="333.447266"/>
       <use xlink:href="#ArialMT-46" x="389.0625"/>
       <use xlink:href="#ArialMT-72" x="450.146484"/>
       <use xlink:href="#ArialMT-6f" x="483.447266"/>
       <use xlink:href="#ArialMT-6d" x="539.0625"/>
       <use xlink:href="#ArialMT-48" x="622.363281"/>
       <use xlink:href="#ArialMT-6f" x="694.580078"/>
       <use xlink:href="#ArialMT-6d" x="750.195312"/>
       <use xlink:href="#ArialMT-65" x="833.496094"/>
      </g>
     </g>
    </g>
    <g id="xtick_9">
     <g id="line2d_9">
      <path d="M 342.383283 294.913701 
L 176.393539 441.967782 
" clip-path="url(#p34a1ac8534)" style="fill: none; stroke: #284463; stroke-linecap: round"/>
     </g>
     <g id="text_9">
      <!-- YearsSinceLastPromotion -->
      <g style="fill: #284463" transform="translate(66.154081 486.588181) scale(0.11 -0.11)">
       <defs>
        <path id="ArialMT-4c" d="M 469 0 
L 469 4581 
L 1075 4581 
L 1075 541 
L 3331 541 
L 3331 0 
L 469 0 
z
" transform="scale(0.015625)"/>
        <path id="ArialMT-50" d="M 494 0 
L 494 4581 
L 2222 4581 
Q 2678 4581 2919 4538 
Q 3256 4481 3484 4323 
Q 3713 4166 3852 3881 
Q 3991 3597 3991 3256 
Q 3991 2672 3619 2267 
Q 3247 1863 2275 1863 
L 1100 1863 
L 1100 0 
L 494 0 
z
M 1100 2403 
L 2284 2403 
Q 2872 2403 3119 2622 
Q 3366 2841 3366 3238 
Q 3366 3525 3220 3729 
Q 3075 3934 2838 4000 
Q 2684 4041 2272 4041 
L 1100 4041 
L 1100 2403 
z
" transform="scale(0.015625)"/>
       </defs>
       <use xlink:href="#ArialMT-59"/>
       <use xlink:href="#ArialMT-65" x="57.574219"/>
       <use xlink:href="#ArialMT-61" x="113.189453"/>
       <use xlink:href="#ArialMT-72" x="168.804688"/>
       <use xlink:href="#ArialMT-73" x="202.105469"/>
       <use xlink:href="#ArialMT-53" x="252.105469"/>
       <use xlink:href="#ArialMT-69" x="318.804688"/>
       <use xlink:href="#ArialMT-6e" x="341.021484"/>
       <use xlink:href="#ArialMT-63" x="396.636719"/>
       <use xlink:href="#ArialMT-65" x="446.636719"/>
       <use xlink:href="#ArialMT-4c" x="502.251953"/>
       <use xlink:href="#ArialMT-61" x="557.867188"/>
       <use xlink:href="#ArialMT-73" x="613.482422"/>
       <use xlink:href="#ArialMT-74" x="663.482422"/>
       <use xlink:href="#ArialMT-50" x="691.265625"/>
       <use xlink:href="#ArialMT-72" x="757.964844"/>
       <use xlink:href="#ArialMT-6f" x="791.265625"/>
       <use xlink:href="#ArialMT-6d" x="846.880859"/>
       <use xlink:href="#ArialMT-6f" x="930.181641"/>
       <use xlink:href="#ArialMT-74" x="985.796875"/>
       <use xlink:href="#ArialMT-69" x="1013.580078"/>
       <use xlink:href="#ArialMT-6f" x="1035.796875"/>
       <use xlink:href="#ArialMT-6e" x="1091.412109"/>
      </g>
     </g>
    </g>
    <g id="xtick_10">
     <g id="line2d_10">
      <path d="M 342.383283 294.913701 
L 263.746103 502.262903 
" clip-path="url(#p34a1ac8534)" style="fill: none; stroke: #284463; stroke-linecap: round"/>
     </g>
     <g id="text_10">
      <!-- NumCompaniesWorked -->
      <g style="fill: #284463" transform="translate(183.124042 564.079629) scale(0.11 -0.11)">
       <defs>
        <path id="ArialMT-4e" d="M 488 0 
L 488 4581 
L 1109 4581 
L 3516 984 
L 3516 4581 
L 4097 4581 
L 4097 0 
L 3475 0 
L 1069 3600 
L 1069 0 
L 488 0 
z
" transform="scale(0.015625)"/>
        <path id="ArialMT-64" d="M 2575 0 
L 2575 419 
Q 2259 -75 1647 -75 
Q 1250 -75 917 144 
Q 584 363 401 755 
Q 219 1147 219 1656 
Q 219 2153 384 2558 
Q 550 2963 881 3178 
Q 1213 3394 1622 3394 
Q 1922 3394 2156 3267 
Q 2391 3141 2538 2938 
L 2538 4581 
L 3097 4581 
L 3097 0 
L 2575 0 
z
M 797 1656 
Q 797 1019 1065 703 
Q 1334 388 1700 388 
Q 2069 388 2326 689 
Q 2584 991 2584 1609 
Q 2584 2291 2321 2609 
Q 2059 2928 1675 2928 
Q 1300 2928 1048 2622 
Q 797 2316 797 1656 
z
" transform="scale(0.015625)"/>
       </defs>
       <use xlink:href="#ArialMT-4e"/>
       <use xlink:href="#ArialMT-75" x="72.216797"/>
       <use xlink:href="#ArialMT-6d" x="127.832031"/>
       <use xlink:href="#ArialMT-43" x="211.132812"/>
       <use xlink:href="#ArialMT-6f" x="283.349609"/>
       <use xlink:href="#ArialMT-6d" x="338.964844"/>
       <use xlink:href="#ArialMT-70" x="422.265625"/>
       <use xlink:href="#ArialMT-61" x="477.880859"/>
       <use xlink:href="#ArialMT-6e" x="533.496094"/>
       <use xlink:href="#ArialMT-69" x="589.111328"/>
       <use xlink:href="#ArialMT-65" x="611.328125"/>
       <use xlink:href="#ArialMT-73" x="666.943359"/>
       <use xlink:href="#ArialMT-57" x="716.943359"/>
       <use xlink:href="#ArialMT-6f" x="809.578125"/>
       <use xlink:href="#ArialMT-72" x="865.193359"/>
       <use xlink:href="#ArialMT-6b" x="898.494141"/>
       <use xlink:href="#ArialMT-65" x="948.494141"/>
       <use xlink:href="#ArialMT-64" x="1004.109375"/>
      </g>
     </g>
    </g>
    <g id="xtick_11">
     <g id="line2d_11">
      <path d="M 342.383283 294.913701 
L 369.113497 515.056821 
" clip-path="url(#p34a1ac8534)" style="fill: none; stroke: #284463; stroke-linecap: round"/>
     </g>
     <g id="text_11">
      <!-- BusinessTravel -->
      <g style="fill: #284463" transform="translate(339.31762 580.441152) scale(0.11 -0.11)">
       <defs>
        <path id="ArialMT-42" d="M 469 0 
L 469 4581 
L 2188 4581 
Q 2713 4581 3030 4442 
Q 3347 4303 3526 4014 
Q 3706 3725 3706 3409 
Q 3706 3116 3547 2856 
Q 3388 2597 3066 2438 
Q 3481 2316 3704 2022 
Q 3928 1728 3928 1328 
Q 3928 1006 3792 729 
Q 3656 453 3456 303 
Q 3256 153 2954 76 
Q 2653 0 2216 0 
L 469 0 
z
M 1075 2656 
L 2066 2656 
Q 2469 2656 2644 2709 
Q 2875 2778 2992 2937 
Q 3109 3097 3109 3338 
Q 3109 3566 3000 3739 
Q 2891 3913 2687 3977 
Q 2484 4041 1991 4041 
L 1075 4041 
L 1075 2656 
z
M 1075 541 
L 2216 541 
Q 2509 541 2628 563 
Q 2838 600 2978 687 
Q 3119 775 3209 942 
Q 3300 1109 3300 1328 
Q 3300 1584 3169 1773 
Q 3038 1963 2805 2039 
Q 2572 2116 2134 2116 
L 1075 2116 
L 1075 541 
z
" transform="scale(0.015625)"/>
       </defs>
       <use xlink:href="#ArialMT-42"/>
       <use xlink:href="#ArialMT-75" x="66.699219"/>
       <use xlink:href="#ArialMT-73" x="122.314453"/>
       <use xlink:href="#ArialMT-69" x="172.314453"/>
       <use xlink:href="#ArialMT-6e" x="194.53125"/>
       <use xlink:href="#ArialMT-65" x="250.146484"/>
       <use xlink:href="#ArialMT-73" x="305.761719"/>
       <use xlink:href="#ArialMT-73" x="355.761719"/>
       <use xlink:href="#ArialMT-54" x="405.761719"/>
       <use xlink:href="#ArialMT-72" x="463.095703"/>
       <use xlink:href="#ArialMT-61" x="496.396484"/>
       <use xlink:href="#ArialMT-76" x="552.011719"/>
       <use xlink:href="#ArialMT-65" x="602.011719"/>
       <use xlink:href="#ArialMT-6c" x="657.626953"/>
      </g>
     </g>
    </g>
    <g id="xtick_12">
     <g id="line2d_12">
      <path d="M 342.383283 294.913701 
L 468.357321 477.418603 
" clip-path="url(#p34a1ac8534)" style="fill: none; stroke: #284463; stroke-linecap: round"/>
     </g>
     <g id="text_12">
      <!-- OverTime -->
      <g style="fill: #284463" transform="translate(480.212665 532.110258) scale(0.11 -0.11)">
       <defs>
        <path id="ArialMT-4f" d="M 309 2231 
Q 309 3372 921 4017 
Q 1534 4663 2503 4663 
Q 3138 4663 3647 4359 
Q 4156 4056 4423 3514 
Q 4691 2972 4691 2284 
Q 4691 1588 4409 1038 
Q 4128 488 3612 205 
Q 3097 -78 2500 -78 
Q 1853 -78 1343 234 
Q 834 547 571 1087 
Q 309 1628 309 2231 
z
M 934 2222 
Q 934 1394 1379 917 
Q 1825 441 2497 441 
Q 3181 441 3623 922 
Q 4066 1403 4066 2288 
Q 4066 2847 3877 3264 
Q 3688 3681 3323 3911 
Q 2959 4141 2506 4141 
Q 1863 4141 1398 3698 
Q 934 3256 934 2222 
z
" transform="scale(0.015625)"/>
       </defs>
       <use xlink:href="#ArialMT-4f"/>
       <use xlink:href="#ArialMT-76" x="77.783203"/>
       <use xlink:href="#ArialMT-65" x="127.783203"/>
       <use xlink:href="#ArialMT-72" x="183.398438"/>
       <use xlink:href="#ArialMT-54" x="216.699219"/>
       <use xlink:href="#ArialMT-69" x="274.033203"/>
       <use xlink:href="#ArialMT-6d" x="296.25"/>
       <use xlink:href="#ArialMT-65" x="379.550781"/>
      </g>
     </g>
    </g>
    <g id="xtick_13">
     <g id="line2d_13">
      <path d="M 342.383283 294.913701 
L 538.742011 397.970711 
" clip-path="url(#p34a1ac8534)" style="fill: none; stroke: #284463; stroke-linecap: round"/>
     </g>
     <g id="text_13">
      <!-- Attrition -->
      <g style="fill: #284463" transform="translate(575.88074 430.091943) scale(0.11 -0.11)">
       <use xlink:href="#ArialMT-41"/>
       <use xlink:href="#ArialMT-74" x="66.699219"/>
       <use xlink:href="#ArialMT-74" x="94.482422"/>
       <use xlink:href="#ArialMT-72" x="122.265625"/>
       <use xlink:href="#ArialMT-69" x="155.566406"/>
       <use xlink:href="#ArialMT-74" x="177.783203"/>
       <use xlink:href="#ArialMT-69" x="205.566406"/>
       <use xlink:href="#ArialMT-6f" x="227.783203"/>
       <use xlink:href="#ArialMT-6e" x="283.398438"/>
      </g>
     </g>
    </g>
   </g>
   <g id="matplotlib.axis_2">
    <g id="ytick_1">
     <g id="line2d_14">
      <path d="M 359.415007 294.913701 
C 359.415007 292.677115 358.974448 290.462278 358.118544 288.395942 
C 357.26264 286.329607 356.008035 284.451958 354.42653 282.870453 
C 352.845025 281.288948 350.967377 280.034344 348.901041 279.17844 
C 346.834706 278.322535 344.619868 277.881977 342.383283 277.881977 
C 340.146697 277.881977 337.931859 278.322535 335.865524 279.17844 
C 333.799188 280.034344 331.92154 281.288948 330.340035 282.870453 
C 328.75853 284.451958 327.503925 286.329607 326.648021 288.395942 
C 325.792117 290.462278 325.351558 292.677115 325.351558 294.913701 
C 325.351558 297.150286 325.792117 299.365124 326.648021 301.43146 
C 327.503925 303.497795 328.75853 305.375444 330.340035 306.956948 
C 331.92154 308.538453 333.799188 309.793058 335.865524 310.648962 
C 337.931859 311.504866 340.146697 311.945425 342.383283 311.945425 
C 344.619868 311.945425 346.834706 311.504866 348.901041 310.648962 
C 350.967377 309.793058 352.845025 308.538453 354.42653 306.956948 
C 356.008035 305.375444 357.26264 303.497795 358.118544 301.43146 
C 358.974448 299.365124 359.415007 297.150286 359.415007 294.913701 
" clip-path="url(#p34a1ac8534)" style="fill: none; stroke: #284463; stroke-linecap: round"/>
     </g>
    </g>
    <g id="ytick_2">
     <g id="line2d_15">
      <path d="M 394.173627 294.913701 
C 394.173627 288.112655 392.83397 281.377741 390.231322 275.094394 
C 387.628675 268.811047 383.813652 263.101462 379.004587 258.292397 
C 374.195521 253.483331 368.485936 249.668309 362.202589 247.065661 
C 355.919242 244.463014 349.184328 243.123356 342.383283 243.123356 
C 335.582237 243.123356 328.847323 244.463014 322.563976 247.065661 
C 316.280629 249.668309 310.571044 253.483331 305.761979 258.292397 
C 300.952913 263.101462 297.137891 268.811047 294.535243 275.094394 
C 291.932595 281.377741 290.592938 288.112655 290.592938 294.913701 
C 290.592938 301.714747 291.932595 308.449661 294.535243 314.733008 
C 297.137891 321.016355 300.952913 326.725939 305.761979 331.535005 
C 310.571044 336.34407 316.280629 340.159093 322.563976 342.76174 
C 328.847323 345.364388 335.582237 346.704046 342.383283 346.704046 
C 349.184328 346.704046 355.919242 345.364388 362.202589 342.76174 
C 368.485936 340.159093 374.195521 336.34407 379.004587 331.535005 
C 383.813652 326.725939 387.628675 321.016355 390.231322 314.733008 
C 392.83397 308.449661 394.173627 301.714747 394.173627 294.913701 
" clip-path="url(#p34a1ac8534)" style="fill: none; stroke: #284463; stroke-linecap: round"/>
     </g>
    </g>
    <g id="ytick_3">
     <g id="line2d_16">
      <path d="M 428.932248 294.913701 
C 428.932248 283.548195 426.693491 272.293204 422.3441 261.792846 
C 417.99471 251.292487 411.619269 241.750967 403.582643 233.71434 
C 395.546017 225.677714 386.004496 219.302274 375.504138 214.952883 
C 365.003779 210.603492 353.748789 208.364735 342.383283 208.364735 
C 331.017777 208.364735 319.762786 210.603492 309.262427 214.952883 
C 298.762069 219.302274 289.220549 225.677714 281.183922 233.71434 
C 273.147296 241.750967 266.771856 251.292487 262.422465 261.792846 
C 258.073074 272.293204 255.834317 283.548195 255.834317 294.913701 
C 255.834317 306.279207 258.073074 317.534198 262.422465 328.034556 
C 266.771856 338.534914 273.147296 348.076435 281.183922 356.113061 
C 289.220549 364.149688 298.762069 370.525128 309.262427 374.874519 
C 319.762786 379.22391 331.017777 381.462666 342.383283 381.462666 
C 353.748789 381.462666 365.003779 379.22391 375.504138 374.874519 
C 386.004496 370.525128 395.546017 364.149688 403.582643 356.113061 
C 411.619269 348.076435 417.99471 338.534914 422.3441 328.034556 
C 426.693491 317.534198 428.932248 306.279207 428.932248 294.913701 
" clip-path="url(#p34a1ac8534)" style="fill: none; stroke: #284463; stroke-linecap: round"/>
     </g>
    </g>
    <g id="ytick_4">
     <g id="line2d_17">
      <path d="M 463.690869 294.913701 
C 463.690869 278.983735 460.553013 263.208667 454.456879 248.491297 
C 448.360744 233.773928 439.424887 220.400471 428.160699 209.136284 
C 416.896512 197.872097 403.523056 188.936239 388.805686 182.840105 
C 374.088316 176.743971 358.313249 173.606115 342.383283 173.606115 
C 326.453316 173.606115 310.678249 176.743971 295.960879 182.840105 
C 281.243509 188.936239 267.870053 197.872097 256.605866 209.136284 
C 245.341679 220.400471 236.405821 233.773928 230.309687 248.491297 
C 224.213552 263.208667 221.075696 278.983735 221.075696 294.913701 
C 221.075696 310.843667 224.213552 326.618735 230.309687 341.336104 
C 236.405821 356.053474 245.341679 369.426931 256.605866 380.691118 
C 267.870053 391.955305 281.243509 400.891163 295.960879 406.987297 
C 310.678249 413.083431 326.453316 416.221287 342.383283 416.221287 
C 358.313249 416.221287 374.088316 413.083431 388.805686 406.987297 
C 403.523056 400.891163 416.896512 391.955305 428.160699 380.691118 
C 439.424887 369.426931 448.360744 356.053474 454.456879 341.336104 
C 460.553013 326.618735 463.690869 310.843667 463.690869 294.913701 
" clip-path="url(#p34a1ac8534)" style="fill: none; stroke: #284463; stroke-linecap: round"/>
     </g>
    </g>
    <g id="ytick_5">
     <g id="line2d_18">
      <path d="M 498.449489 294.913701 
C 498.449489 274.419274 494.412534 254.12413 486.569657 235.189749 
C 478.726779 216.255368 467.230504 199.049976 452.738756 184.558228 
C 438.247008 170.06648 421.041615 158.570204 402.107234 150.727327 
C 383.172853 142.884449 362.877709 138.847494 342.383283 138.847494 
C 321.888856 138.847494 301.593712 142.884449 282.659331 150.727327 
C 263.72495 158.570204 246.519557 170.06648 232.027809 184.558228 
C 217.536061 199.049976 206.039786 216.255368 198.196908 235.189749 
C 190.354031 254.12413 186.317076 274.419274 186.317076 294.913701 
C 186.317076 315.408127 190.354031 335.703271 198.196908 354.637653 
C 206.039786 373.572034 217.536061 390.777426 232.027809 405.269174 
C 246.519557 419.760922 263.72495 431.257198 282.659331 439.100075 
C 301.593712 446.942953 321.888856 450.979908 342.383283 450.979908 
C 362.877709 450.979908 383.172853 446.942953 402.107234 439.100075 
C 421.041615 431.257198 438.247008 419.760922 452.738756 405.269174 
C 467.230504 390.777426 478.726779 373.572034 486.569657 354.637653 
C 494.412534 335.703271 498.449489 315.408127 498.449489 294.913701 
" clip-path="url(#p34a1ac8534)" style="fill: none; stroke: #284463; stroke-linecap: round"/>
     </g>
    </g>
    <g id="ytick_6">
     <g id="line2d_19">
      <path d="M 533.20811 294.913701 
C 533.20811 269.854814 528.272056 245.039593 518.682435 221.888201 
C 509.092814 198.736808 495.036121 177.69948 477.316812 159.980171 
C 459.597503 142.260863 438.560175 128.204169 415.408783 118.614548 
C 392.25739 109.024928 367.442169 104.088873 342.383283 104.088873 
C 317.324396 104.088873 292.509175 109.024928 269.357783 118.614548 
C 246.20639 128.204169 225.169062 142.260863 207.449753 159.980171 
C 189.730444 177.69948 175.673751 198.736808 166.08413 221.888201 
C 156.494509 245.039593 151.558455 269.854814 151.558455 294.913701 
C 151.558455 319.972588 156.494509 344.787808 166.08413 367.939201 
C 175.673751 391.090593 189.730444 412.127922 207.449753 429.84723 
C 225.169062 447.566539 246.20639 461.623233 269.357783 471.212853 
C 292.509175 480.802474 317.324396 485.738528 342.383283 485.738528 
C 367.442169 485.738528 392.25739 480.802474 415.408783 471.212853 
C 438.560175 461.623233 459.597503 447.566539 477.316812 429.84723 
C 495.036121 412.127922 509.092814 391.090593 518.682435 367.939201 
C 528.272056 344.787808 533.20811 319.972588 533.20811 294.913701 
" clip-path="url(#p34a1ac8534)" style="fill: none; stroke: #284463; stroke-linecap: round"/>
     </g>
    </g>
   </g>
   <g id="patch_3">
    <path d="M 352.463283 294.913701 
L 357.464125 286.998664 
L 359.956463 269.454553 
L 346.112106 264.204081 
L 331.413519 265.988812 
L 329.634854 283.619579 
L 298.847591 284.183117 
L 278.598432 310.635255 
L 319.227974 315.427515 
L 321.553058 349.838489 
L 351.139732 367.02955 
L 395.497728 371.86326 
L 529.816614 393.286302 
z
" clip-path="url(#p34a1ac8534)" style="fill: #c53f3f; opacity: 0.8; stroke: #ffffff; stroke-linejoin: miter"/>
   </g>
   <g id="patch_4">
    <path d="M 366.366731 294.913701 
L 363.619571 283.768037 
L 375.752581 246.569926 
L 349.463857 236.599928 
L 321.553058 239.988912 
L 319.227974 274.399887 
L 292.097871 282.51946 
L 292.097871 307.307942 
L 324.431414 310.817669 
L 326.483289 336.83854 
L 347.787981 339.425398 
L 367.854522 331.815162 
L 363.619571 306.059365 
z
" clip-path="url(#p34a1ac8534)" style="fill: #003300; opacity: 0.8; stroke: #ffffff; stroke-linejoin: miter"/>
   </g>
   <g id="patch_5">
    <path d="M 470.642593 294.913701 
L 443.64037 241.769882 
L 371.803552 252.291083 
L 348.625919 243.500966 
L 324.018173 246.488887 
L 261.990131 223.691583 
L 292.097871 282.51946 
L 292.097871 307.307942 
L 256.786691 370.745664 
L 321.553058 349.838489 
L 348.625919 346.326436 
L 371.803552 337.536319 
L 369.775017 309.289992 
z
" clip-path="url(#p34a1ac8534)" style="fill: #284463; opacity: 0.5; stroke: #ffffff; stroke-linejoin: miter"/>
   </g>
   <g id="patch_6">
    <path d="M 564.143283 294.913701 
C 564.143283 265.792444 558.40703 236.954356 547.262808 210.049823 
C 536.118585 183.14529 519.78312 158.697539 499.191282 138.105701 
C 478.599444 117.513863 454.151693 101.178398 427.247161 90.034176 
C 400.342628 78.889953 371.504539 73.153701 342.383283 73.153701 
C 313.262026 73.153701 284.423937 78.889953 257.519405 90.034176 
C 230.614872 101.178398 206.167121 117.513863 185.575283 138.105701 
C 164.983445 158.697539 148.64798 183.14529 137.503757 210.049823 
C 126.359535 236.954356 120.623283 265.792444 120.623283 294.913701 
C 120.623283 324.034957 126.359535 352.873046 137.503757 379.777579 
C 148.64798 406.682112 164.983445 431.129863 185.575283 451.721701 
C 206.167121 472.313539 230.614872 488.649004 257.519405 499.793226 
C 284.423937 510.937448 313.262026 516.673701 342.383283 516.673701 
C 371.504539 516.673701 400.342628 510.937448 427.247161 499.793226 
C 454.151693 488.649004 478.599444 472.313539 499.191282 451.721701 
C 519.78312 431.129863 536.118585 406.682112 547.262808 379.777579 
C 558.40703 352.873046 564.143283 324.034957 564.143283 294.913701 
" style="fill: none; stroke: #284463; stroke-width: 1.25; stroke-linejoin: miter; stroke-linecap: square"/>
   </g>
  </g>
 </g>
 <defs>
  <clipPath id="p34a1ac8534">
   <path d="M 564.143283 294.913701 
C 564.143283 265.792444 558.40703 236.954356 547.262808 210.049823 
C 536.118585 183.14529 519.78312 158.697539 499.191282 138.105701 
C 478.599444 117.513863 454.151693 101.178398 427.247161 90.034176 
C 400.342628 78.889953 371.504539 73.153701 342.383283 73.153701 
C 313.262026 73.153701 284.423937 78.889953 257.519405 90.034176 
C 230.614872 101.178398 206.167121 117.513863 185.575283 138.105701 
C 164.983445 158.697539 148.64798 183.14529 137.503757 210.049823 
C 126.359535 236.954356 120.623283 265.792444 120.623283 294.913701 
C 120.623283 324.034957 126.359535 352.873046 137.503757 379.777579 
C 148.64798 406.682112 164.983445 431.129863 185.575283 451.721701 
C 206.167121 472.313539 230.614872 488.649004 257.519405 499.793226 
C 284.423937 510.937448 313.262026 516.673701 342.383283 516.673701 
C 371.504539 516.673701 400.342628 510.937448 427.247161 499.793226 
C 454.151693 488.649004 478.599444 472.313539 499.191282 451.721701 
C 519.78312 431.129863 536.118585 406.682112 547.262808 379.777579 
C 558.40703 352.873046 564.143283 324.034957 564.143283 294.913701 
M 342.383283 294.913701 
C 342.383283 294.913701 342.383283 294.913701 342.383283 294.913701 
C 342.383283 294.913701 342.383283 294.913701 342.383283 294.913701 
C 342.383283 294.913701 342.383283 294.913701 342.383283 294.913701 
C 342.383283 294.913701 342.383283 294.913701 342.383283 294.913701 
C 342.383283 294.913701 342.383283 294.913701 342.383283 294.913701 
C 342.383283 294.913701 342.383283 294.913701 342.383283 294.913701 
C 342.383283 294.913701 342.383283 294.913701 342.383283 294.913701 
C 342.383283 294.913701 342.383283 294.913701 342.383283 294.913701 
C 342.383283 294.913701 342.383283 294.913701 342.383283 294.913701 
C 342.383283 294.913701 342.383283 294.913701 342.383283 294.913701 
C 342.383283 294.913701 342.383283 294.913701 342.383283 294.913701 
C 342.383283 294.913701 342.383283 294.913701 342.383283 294.913701 
C 342.383283 294.913701 342.383283 294.913701 342.383283 294.913701 
C 342.383283 294.913701 342.383283 294.913701 342.383283 294.913701 
C 342.383283 294.913701 342.383283 294.913701 342.383283 294.913701 
C 342.383283 294.913701 342.383283 294.913701 342.383283 294.913701 
z
"/>
  </clipPath>
 </defs>
</svg>
